<svg height="2286" width="720" xmlns="http://www.w3.org/2000/svg">
<rect height="2286" fill="#555" width="720"></rect>
<text fill="#7f7" font-family="Courier New" font-size="12" xml:space="preserve">
<tspan x="10" y="26">5 megabytes installed</tspan>
<tspan x="10" y="42"></tspan>
<tspan x="10" y="58">node_modules</tspan>
<tspan x="10" y="74">└─┬ nodemon@1.11.0 </tspan>
<tspan x="10" y="90">  ├─┬ chokidar@1.6.1 </tspan>
<tspan x="10" y="106">  │ ├─┬ anymatch@1.3.0 </tspan>
<tspan x="10" y="122">  │ │ ├── arrify@1.0.1 </tspan>
<tspan x="10" y="138">  │ │ └─┬ micromatch@2.3.11 </tspan>
<tspan x="10" y="154">  │ │   ├─┬ arr-diff@2.0.0 </tspan>
<tspan x="10" y="170">  │ │   │ └── arr-flatten@1.0.1 </tspan>
<tspan x="10" y="186">  │ │   ├── array-unique@0.2.1 </tspan>
<tspan x="10" y="202">  │ │   ├─┬ braces@1.8.5 </tspan>
<tspan x="10" y="218">  │ │   │ ├─┬ expand-range@1.8.2 </tspan>
<tspan x="10" y="234">  │ │   │ │ └─┬ fill-range@2.2.3 </tspan>
<tspan x="10" y="250">  │ │   │ │   ├── is-number@2.1.0 </tspan>
<tspan x="10" y="266">  │ │   │ │   ├── isobject@2.1.0 </tspan>
<tspan x="10" y="282">  │ │   │ │   ├── randomatic@1.1.6 </tspan>
<tspan x="10" y="298">  │ │   │ │   └── repeat-string@1.6.1 </tspan>
<tspan x="10" y="314">  │ │   │ ├── preserve@0.2.0 </tspan>
<tspan x="10" y="330">  │ │   │ └── repeat-element@1.1.2 </tspan>
<tspan x="10" y="346">  │ │   ├─┬ expand-brackets@0.1.5 </tspan>
<tspan x="10" y="362">  │ │   │ └── is-posix-bracket@0.1.1 </tspan>
<tspan x="10" y="378">  │ │   ├── extglob@0.3.2 </tspan>
<tspan x="10" y="394">  │ │   ├── filename-regex@2.0.0 </tspan>
<tspan x="10" y="410">  │ │   ├─┬ kind-of@3.1.0 </tspan>
<tspan x="10" y="426">  │ │   │ └── is-buffer@1.1.5 </tspan>
<tspan x="10" y="442">  │ │   ├─┬ normalize-path@2.1.1 </tspan>
<tspan x="10" y="458">  │ │   │ └── remove-trailing-separator@1.0.1 </tspan>
<tspan x="10" y="474">  │ │   ├─┬ object.omit@2.0.1 </tspan>
<tspan x="10" y="490">  │ │   │ ├─┬ for-own@0.1.5 </tspan>
<tspan x="10" y="506">  │ │   │ │ └── for-in@1.0.2 </tspan>
<tspan x="10" y="522">  │ │   │ └── is-extendable@0.1.1 </tspan>
<tspan x="10" y="538">  │ │   ├─┬ parse-glob@3.0.4 </tspan>
<tspan x="10" y="554">  │ │   │ ├── glob-base@0.3.0 </tspan>
<tspan x="10" y="570">  │ │   │ └── is-dotfile@1.0.2 </tspan>
<tspan x="10" y="586">  │ │   └─┬ regex-cache@0.4.3 </tspan>
<tspan x="10" y="602">  │ │     ├── is-equal-shallow@0.1.3 </tspan>
<tspan x="10" y="618">  │ │     └── is-primitive@2.0.0 </tspan>
<tspan x="10" y="634">  │ ├── async-each@1.0.1 </tspan>
<tspan x="10" y="650">  │ ├── glob-parent@2.0.0 </tspan>
<tspan x="10" y="666">  │ ├── inherits@2.0.3 </tspan>
<tspan x="10" y="682">  │ ├─┬ is-binary-path@1.0.1 </tspan>
<tspan x="10" y="698">  │ │ └── binary-extensions@1.8.0 </tspan>
<tspan x="10" y="714">  │ ├─┬ is-glob@2.0.1 </tspan>
<tspan x="10" y="730">  │ │ └── is-extglob@1.0.0 </tspan>
<tspan x="10" y="746">  │ ├── path-is-absolute@1.0.1 </tspan>
<tspan x="10" y="762">  │ └─┬ readdirp@2.1.0 </tspan>
<tspan x="10" y="778">  │   ├── graceful-fs@4.1.11 </tspan>
<tspan x="10" y="794">  │   ├─┬ readable-stream@2.2.9 </tspan>
<tspan x="10" y="810">  │   │ ├── buffer-shims@1.0.0 </tspan>
<tspan x="10" y="826">  │   │ ├── core-util-is@1.0.2 </tspan>
<tspan x="10" y="842">  │   │ ├── isarray@1.0.0 </tspan>
<tspan x="10" y="858">  │   │ ├── process-nextick-args@1.0.7 </tspan>
<tspan x="10" y="874">  │   │ ├── string_decoder@1.0.0 </tspan>
<tspan x="10" y="890">  │   │ └── util-deprecate@1.0.2 </tspan>
<tspan x="10" y="906">  │   └── set-immediate-shim@1.0.1 </tspan>
<tspan x="10" y="922">  ├─┬ debug@2.6.3 </tspan>
<tspan x="10" y="938">  │ └── ms@0.7.2 </tspan>
<tspan x="10" y="954">  ├── es6-promise@3.3.1 </tspan>
<tspan x="10" y="970">  ├── ignore-by-default@1.0.1 </tspan>
<tspan x="10" y="986">  ├─┬ lodash.defaults@3.1.2 </tspan>
<tspan x="10" y="1002">  │ ├─┬ lodash.assign@3.2.0 </tspan>
<tspan x="10" y="1018">  │ │ ├─┬ lodash._baseassign@3.2.0 </tspan>
<tspan x="10" y="1034">  │ │ │ └── lodash._basecopy@3.0.1 </tspan>
<tspan x="10" y="1050">  │ │ ├─┬ lodash._createassigner@3.1.1 </tspan>
<tspan x="10" y="1066">  │ │ │ ├── lodash._bindcallback@3.0.1 </tspan>
<tspan x="10" y="1082">  │ │ │ └── lodash._isiterateecall@3.0.9 </tspan>
<tspan x="10" y="1098">  │ │ └─┬ lodash.keys@3.1.2 </tspan>
<tspan x="10" y="1114">  │ │   ├── lodash._getnative@3.9.1 </tspan>
<tspan x="10" y="1130">  │ │   ├── lodash.isarguments@3.1.0 </tspan>
<tspan x="10" y="1146">  │ │   └── lodash.isarray@3.0.4 </tspan>
<tspan x="10" y="1162">  │ └── lodash.restparam@3.6.1 </tspan>
<tspan x="10" y="1178">  ├─┬ minimatch@3.0.3 </tspan>
<tspan x="10" y="1194">  │ └─┬ brace-expansion@1.1.7 </tspan>
<tspan x="10" y="1210">  │   ├── balanced-match@0.4.2 </tspan>
<tspan x="10" y="1226">  │   └── concat-map@0.0.1 </tspan>
<tspan x="10" y="1242">  ├─┬ ps-tree@1.1.0 </tspan>
<tspan x="10" y="1258">  │ └─┬ event-stream@3.3.4 </tspan>
<tspan x="10" y="1274">  │   ├── duplexer@0.1.1 </tspan>
<tspan x="10" y="1290">  │   ├── from@0.1.7 </tspan>
<tspan x="10" y="1306">  │   ├── map-stream@0.1.0 </tspan>
<tspan x="10" y="1322">  │   ├── pause-stream@0.0.11 </tspan>
<tspan x="10" y="1338">  │   ├── split@0.3.3 </tspan>
<tspan x="10" y="1354">  │   ├── stream-combiner@0.0.4 </tspan>
<tspan x="10" y="1370">  │   └── through@2.3.8 </tspan>
<tspan x="10" y="1386">  ├─┬ touch@1.0.0 </tspan>
<tspan x="10" y="1402">  │ └─┬ nopt@1.0.10 </tspan>
<tspan x="10" y="1418">  │   └── abbrev@1.1.0 </tspan>
<tspan x="10" y="1434">  ├── undefsafe@0.0.3 </tspan>
<tspan x="10" y="1450">  └─┬ update-notifier@0.5.0 </tspan>
<tspan x="10" y="1466">    ├─┬ chalk@1.1.3 </tspan>
<tspan x="10" y="1482">    │ ├── ansi-styles@2.2.1 </tspan>
<tspan x="10" y="1498">    │ ├── escape-string-regexp@1.0.5 </tspan>
<tspan x="10" y="1514">    │ ├─┬ has-ansi@2.0.0 </tspan>
<tspan x="10" y="1530">    │ │ └── ansi-regex@2.1.1 </tspan>
<tspan x="10" y="1546">    │ ├── strip-ansi@3.0.1 </tspan>
<tspan x="10" y="1562">    │ └── supports-color@2.0.0 </tspan>
<tspan x="10" y="1578">    ├─┬ configstore@1.4.0 </tspan>
<tspan x="10" y="1594">    │ ├─┬ mkdirp@0.5.1 </tspan>
<tspan x="10" y="1610">    │ │ └── minimist@0.0.8 </tspan>
<tspan x="10" y="1626">    │ ├── object-assign@4.1.1 </tspan>
<tspan x="10" y="1642">    │ ├── os-tmpdir@1.0.2 </tspan>
<tspan x="10" y="1658">    │ ├─┬ osenv@0.1.4 </tspan>
<tspan x="10" y="1674">    │ │ └── os-homedir@1.0.2 </tspan>
<tspan x="10" y="1690">    │ ├── uuid@2.0.3 </tspan>
<tspan x="10" y="1706">    │ ├─┬ write-file-atomic@1.3.1 </tspan>
<tspan x="10" y="1722">    │ │ ├── imurmurhash@0.1.4 </tspan>
<tspan x="10" y="1738">    │ │ └── slide@1.1.6 </tspan>
<tspan x="10" y="1754">    │ └── xdg-basedir@2.0.0 </tspan>
<tspan x="10" y="1770">    ├── is-npm@1.0.0 </tspan>
<tspan x="10" y="1786">    ├─┬ latest-version@1.0.1 </tspan>
<tspan x="10" y="1802">    │ └─┬ package-json@1.2.0 </tspan>
<tspan x="10" y="1818">    │   ├─┬ got@3.3.1 </tspan>
<tspan x="10" y="1834">    │   │ ├─┬ duplexify@3.5.0 </tspan>
<tspan x="10" y="1850">    │   │ │ ├─┬ end-of-stream@1.0.0 </tspan>
<tspan x="10" y="1866">    │   │ │ │ └─┬ once@1.3.3 </tspan>
<tspan x="10" y="1882">    │   │ │ │   └── wrappy@1.0.2 </tspan>
<tspan x="10" y="1898">    │   │ │ └── stream-shift@1.0.0 </tspan>
<tspan x="10" y="1914">    │   │ ├── infinity-agent@2.0.3 </tspan>
<tspan x="10" y="1930">    │   │ ├── is-redirect@1.0.0 </tspan>
<tspan x="10" y="1946">    │   │ ├── is-stream@1.1.0 </tspan>
<tspan x="10" y="1962">    │   │ ├── lowercase-keys@1.0.0 </tspan>
<tspan x="10" y="1978">    │   │ ├── nested-error-stacks@1.0.2 </tspan>
<tspan x="10" y="1994">    │   │ ├── object-assign@3.0.0 </tspan>
<tspan x="10" y="2010">    │   │ ├── prepend-http@1.0.4 </tspan>
<tspan x="10" y="2026">    │   │ ├─┬ read-all-stream@3.1.0 </tspan>
<tspan x="10" y="2042">    │   │ │ └─┬ pinkie-promise@2.0.1 </tspan>
<tspan x="10" y="2058">    │   │ │   └── pinkie@2.0.4 </tspan>
<tspan x="10" y="2074">    │   │ └── timed-out@2.0.0 </tspan>
<tspan x="10" y="2090">    │   └─┬ registry-url@3.1.0 </tspan>
<tspan x="10" y="2106">    │     └─┬ rc@1.2.1 </tspan>
<tspan x="10" y="2122">    │       ├── deep-extend@0.4.1 </tspan>
<tspan x="10" y="2138">    │       ├── ini@1.3.4 </tspan>
<tspan x="10" y="2154">    │       ├── minimist@1.2.0 </tspan>
<tspan x="10" y="2170">    │       └── strip-json-comments@2.0.1 </tspan>
<tspan x="10" y="2186">    ├─┬ repeating@1.1.3 </tspan>
<tspan x="10" y="2202">    │ └─┬ is-finite@1.0.2 </tspan>
<tspan x="10" y="2218">    │   └── number-is-nan@1.0.1 </tspan>
<tspan x="10" y="2234">    ├─┬ semver-diff@2.1.0 </tspan>
<tspan x="10" y="2250">    │ └── semver@5.3.0 </tspan>
<tspan x="10" y="2266">    └── string-length@1.0.1</tspan>
</text>
</svg>
